<mxfile host="app.diagrams.net" modified="2023-10-21T20:22:55.394Z" agent="Mozilla/5.0 (Windows NT 10.0; Win64; x64) AppleWebKit/537.36 (KHTML, like Gecko) Chrome/116.0.5845.888 YaBrowser/23.9.2.888 Yowser/2.5 Safari/537.36" etag="gLWxn5tn9hX8_yZ6FkuY" version="22.0.6" type="github">
  <diagram id="C5RBs43oDa-KdzZeNtuy" name="Page-1">
    <mxGraphModel dx="1514" dy="849" grid="1" gridSize="10" guides="1" tooltips="1" connect="1" arrows="1" fold="1" page="1" pageScale="1" pageWidth="827" pageHeight="1169" math="0" shadow="0">
      <root>
        <mxCell id="WIyWlLk6GJQsqaUBKTNV-0" />
        <mxCell id="WIyWlLk6GJQsqaUBKTNV-1" parent="WIyWlLk6GJQsqaUBKTNV-0" />
        <mxCell id="J2QA_go_PGPVcT6c2pGm-23" value="" style="edgeStyle=orthogonalEdgeStyle;rounded=0;orthogonalLoop=1;jettySize=auto;html=1;entryX=0.5;entryY=0;entryDx=0;entryDy=0;" edge="1" parent="WIyWlLk6GJQsqaUBKTNV-1" source="J2QA_go_PGPVcT6c2pGm-0" target="J2QA_go_PGPVcT6c2pGm-2">
          <mxGeometry relative="1" as="geometry" />
        </mxCell>
        <mxCell id="J2QA_go_PGPVcT6c2pGm-0" value="Start" style="ellipse;whiteSpace=wrap;html=1;" vertex="1" parent="WIyWlLk6GJQsqaUBKTNV-1">
          <mxGeometry x="330" y="20" width="120" height="80" as="geometry" />
        </mxCell>
        <mxCell id="J2QA_go_PGPVcT6c2pGm-1" value="Finish" style="ellipse;whiteSpace=wrap;html=1;" vertex="1" parent="WIyWlLk6GJQsqaUBKTNV-1">
          <mxGeometry x="330" y="1050" width="120" height="80" as="geometry" />
        </mxCell>
        <mxCell id="J2QA_go_PGPVcT6c2pGm-24" value="" style="edgeStyle=orthogonalEdgeStyle;rounded=0;orthogonalLoop=1;jettySize=auto;html=1;" edge="1" parent="WIyWlLk6GJQsqaUBKTNV-1" source="J2QA_go_PGPVcT6c2pGm-2">
          <mxGeometry relative="1" as="geometry">
            <mxPoint x="390" y="200" as="targetPoint" />
          </mxGeometry>
        </mxCell>
        <mxCell id="J2QA_go_PGPVcT6c2pGm-2" value="N,i=1,factorial=1" style="rounded=0;whiteSpace=wrap;html=1;" vertex="1" parent="WIyWlLk6GJQsqaUBKTNV-1">
          <mxGeometry x="330" y="120" width="120" height="60" as="geometry" />
        </mxCell>
        <mxCell id="J2QA_go_PGPVcT6c2pGm-25" style="edgeStyle=orthogonalEdgeStyle;rounded=0;orthogonalLoop=1;jettySize=auto;html=1;entryX=0.5;entryY=0;entryDx=0;entryDy=0;" edge="1" parent="WIyWlLk6GJQsqaUBKTNV-1" source="J2QA_go_PGPVcT6c2pGm-3" target="J2QA_go_PGPVcT6c2pGm-5">
          <mxGeometry relative="1" as="geometry" />
        </mxCell>
        <mxCell id="J2QA_go_PGPVcT6c2pGm-3" value="N" style="shape=parallelogram;perimeter=parallelogramPerimeter;whiteSpace=wrap;html=1;fixedSize=1;" vertex="1" parent="WIyWlLk6GJQsqaUBKTNV-1">
          <mxGeometry x="330" y="200" width="120" height="60" as="geometry" />
        </mxCell>
        <mxCell id="J2QA_go_PGPVcT6c2pGm-31" style="edgeStyle=orthogonalEdgeStyle;rounded=0;orthogonalLoop=1;jettySize=auto;html=1;" edge="1" parent="WIyWlLk6GJQsqaUBKTNV-1" source="J2QA_go_PGPVcT6c2pGm-4" target="J2QA_go_PGPVcT6c2pGm-1">
          <mxGeometry relative="1" as="geometry" />
        </mxCell>
        <mxCell id="J2QA_go_PGPVcT6c2pGm-4" value="factorial" style="shape=document;whiteSpace=wrap;html=1;boundedLbl=1;" vertex="1" parent="WIyWlLk6GJQsqaUBKTNV-1">
          <mxGeometry x="330" y="950" width="120" height="80" as="geometry" />
        </mxCell>
        <mxCell id="J2QA_go_PGPVcT6c2pGm-8" style="edgeStyle=orthogonalEdgeStyle;rounded=0;orthogonalLoop=1;jettySize=auto;html=1;entryX=0;entryY=0.5;entryDx=0;entryDy=0;" edge="1" parent="WIyWlLk6GJQsqaUBKTNV-1" source="J2QA_go_PGPVcT6c2pGm-5" target="J2QA_go_PGPVcT6c2pGm-7">
          <mxGeometry relative="1" as="geometry" />
        </mxCell>
        <mxCell id="J2QA_go_PGPVcT6c2pGm-9" value="Да" style="edgeLabel;html=1;align=center;verticalAlign=middle;resizable=0;points=[];" vertex="1" connectable="0" parent="J2QA_go_PGPVcT6c2pGm-8">
          <mxGeometry x="-0.1723" y="2" relative="1" as="geometry">
            <mxPoint as="offset" />
          </mxGeometry>
        </mxCell>
        <mxCell id="J2QA_go_PGPVcT6c2pGm-11" style="edgeStyle=orthogonalEdgeStyle;rounded=0;orthogonalLoop=1;jettySize=auto;html=1;" edge="1" parent="WIyWlLk6GJQsqaUBKTNV-1" source="J2QA_go_PGPVcT6c2pGm-5" target="J2QA_go_PGPVcT6c2pGm-10">
          <mxGeometry relative="1" as="geometry" />
        </mxCell>
        <mxCell id="J2QA_go_PGPVcT6c2pGm-12" value="нет" style="edgeLabel;html=1;align=center;verticalAlign=middle;resizable=0;points=[];" vertex="1" connectable="0" parent="J2QA_go_PGPVcT6c2pGm-11">
          <mxGeometry y="-1" relative="1" as="geometry">
            <mxPoint as="offset" />
          </mxGeometry>
        </mxCell>
        <mxCell id="J2QA_go_PGPVcT6c2pGm-5" value="N &amp;lt; 0" style="rhombus;whiteSpace=wrap;html=1;" vertex="1" parent="WIyWlLk6GJQsqaUBKTNV-1">
          <mxGeometry x="320" y="280" width="140" height="140" as="geometry" />
        </mxCell>
        <mxCell id="J2QA_go_PGPVcT6c2pGm-32" style="edgeStyle=orthogonalEdgeStyle;rounded=0;orthogonalLoop=1;jettySize=auto;html=1;" edge="1" parent="WIyWlLk6GJQsqaUBKTNV-1" source="J2QA_go_PGPVcT6c2pGm-7">
          <mxGeometry relative="1" as="geometry">
            <mxPoint x="450" y="1090" as="targetPoint" />
            <Array as="points">
              <mxPoint x="790" y="350" />
              <mxPoint x="790" y="1090" />
            </Array>
          </mxGeometry>
        </mxCell>
        <mxCell id="J2QA_go_PGPVcT6c2pGm-7" value="Факториал отрицательного числа не существует" style="shape=document;whiteSpace=wrap;html=1;boundedLbl=1;" vertex="1" parent="WIyWlLk6GJQsqaUBKTNV-1">
          <mxGeometry x="506" y="310" width="120" height="80" as="geometry" />
        </mxCell>
        <mxCell id="J2QA_go_PGPVcT6c2pGm-15" style="edgeStyle=orthogonalEdgeStyle;rounded=0;orthogonalLoop=1;jettySize=auto;html=1;entryX=0;entryY=0.5;entryDx=0;entryDy=0;" edge="1" parent="WIyWlLk6GJQsqaUBKTNV-1" source="J2QA_go_PGPVcT6c2pGm-10" target="J2QA_go_PGPVcT6c2pGm-13">
          <mxGeometry relative="1" as="geometry" />
        </mxCell>
        <mxCell id="J2QA_go_PGPVcT6c2pGm-16" value="да" style="edgeLabel;html=1;align=center;verticalAlign=middle;resizable=0;points=[];" vertex="1" connectable="0" parent="J2QA_go_PGPVcT6c2pGm-15">
          <mxGeometry x="-0.0338" relative="1" as="geometry">
            <mxPoint as="offset" />
          </mxGeometry>
        </mxCell>
        <mxCell id="J2QA_go_PGPVcT6c2pGm-26" style="edgeStyle=orthogonalEdgeStyle;rounded=0;orthogonalLoop=1;jettySize=auto;html=1;entryX=0.5;entryY=0;entryDx=0;entryDy=0;" edge="1" parent="WIyWlLk6GJQsqaUBKTNV-1" source="J2QA_go_PGPVcT6c2pGm-10" target="J2QA_go_PGPVcT6c2pGm-19">
          <mxGeometry relative="1" as="geometry" />
        </mxCell>
        <mxCell id="J2QA_go_PGPVcT6c2pGm-10" value="N = 0" style="rhombus;whiteSpace=wrap;html=1;" vertex="1" parent="WIyWlLk6GJQsqaUBKTNV-1">
          <mxGeometry x="320" y="460" width="140" height="140" as="geometry" />
        </mxCell>
        <mxCell id="J2QA_go_PGPVcT6c2pGm-20" style="edgeStyle=orthogonalEdgeStyle;rounded=0;orthogonalLoop=1;jettySize=auto;html=1;entryX=1;entryY=0.5;entryDx=0;entryDy=0;" edge="1" parent="WIyWlLk6GJQsqaUBKTNV-1" source="J2QA_go_PGPVcT6c2pGm-13" target="J2QA_go_PGPVcT6c2pGm-4">
          <mxGeometry relative="1" as="geometry">
            <Array as="points">
              <mxPoint x="730" y="530" />
              <mxPoint x="730" y="990" />
            </Array>
          </mxGeometry>
        </mxCell>
        <mxCell id="J2QA_go_PGPVcT6c2pGm-13" value="factorial = 1" style="shape=document;whiteSpace=wrap;html=1;boundedLbl=1;" vertex="1" parent="WIyWlLk6GJQsqaUBKTNV-1">
          <mxGeometry x="506" y="490" width="120" height="80" as="geometry" />
        </mxCell>
        <mxCell id="J2QA_go_PGPVcT6c2pGm-27" style="edgeStyle=orthogonalEdgeStyle;rounded=0;orthogonalLoop=1;jettySize=auto;html=1;entryX=0;entryY=0.5;entryDx=0;entryDy=0;" edge="1" parent="WIyWlLk6GJQsqaUBKTNV-1" source="J2QA_go_PGPVcT6c2pGm-19" target="J2QA_go_PGPVcT6c2pGm-21">
          <mxGeometry relative="1" as="geometry" />
        </mxCell>
        <mxCell id="J2QA_go_PGPVcT6c2pGm-30" style="edgeStyle=orthogonalEdgeStyle;rounded=0;orthogonalLoop=1;jettySize=auto;html=1;entryX=0.5;entryY=0;entryDx=0;entryDy=0;" edge="1" parent="WIyWlLk6GJQsqaUBKTNV-1" source="J2QA_go_PGPVcT6c2pGm-19" target="J2QA_go_PGPVcT6c2pGm-4">
          <mxGeometry relative="1" as="geometry" />
        </mxCell>
        <mxCell id="J2QA_go_PGPVcT6c2pGm-19" value="i &amp;lt;= N" style="rhombus;whiteSpace=wrap;html=1;" vertex="1" parent="WIyWlLk6GJQsqaUBKTNV-1">
          <mxGeometry x="320" y="630" width="140" height="140" as="geometry" />
        </mxCell>
        <mxCell id="J2QA_go_PGPVcT6c2pGm-28" style="edgeStyle=orthogonalEdgeStyle;rounded=0;orthogonalLoop=1;jettySize=auto;html=1;entryX=0.5;entryY=0;entryDx=0;entryDy=0;" edge="1" parent="WIyWlLk6GJQsqaUBKTNV-1" source="J2QA_go_PGPVcT6c2pGm-21" target="J2QA_go_PGPVcT6c2pGm-22">
          <mxGeometry relative="1" as="geometry" />
        </mxCell>
        <mxCell id="J2QA_go_PGPVcT6c2pGm-21" value="factorial = factorial * i" style="rounded=0;whiteSpace=wrap;html=1;" vertex="1" parent="WIyWlLk6GJQsqaUBKTNV-1">
          <mxGeometry x="506" y="670" width="120" height="60" as="geometry" />
        </mxCell>
        <mxCell id="J2QA_go_PGPVcT6c2pGm-29" style="edgeStyle=orthogonalEdgeStyle;rounded=0;orthogonalLoop=1;jettySize=auto;html=1;entryX=1;entryY=0;entryDx=0;entryDy=0;" edge="1" parent="WIyWlLk6GJQsqaUBKTNV-1" source="J2QA_go_PGPVcT6c2pGm-22" target="J2QA_go_PGPVcT6c2pGm-19">
          <mxGeometry relative="1" as="geometry">
            <Array as="points">
              <mxPoint x="710" y="790" />
              <mxPoint x="710" y="640" />
              <mxPoint x="425" y="640" />
            </Array>
          </mxGeometry>
        </mxCell>
        <mxCell id="J2QA_go_PGPVcT6c2pGm-22" value="i = i + 1" style="rounded=0;whiteSpace=wrap;html=1;" vertex="1" parent="WIyWlLk6GJQsqaUBKTNV-1">
          <mxGeometry x="506" y="760" width="120" height="60" as="geometry" />
        </mxCell>
      </root>
    </mxGraphModel>
  </diagram>
</mxfile>
